# xmcd
#
# Track frame offsets:
#	150
#	11467
#	26092
#	37985
#	48400
#	63372
#	76042
#	87680
#	101030
#	116527
#	132077
#	144692
#
# Disc length: 2046 seconds
#
# Revision: 0
# Processed by: cddbd v1.4PL0 Copyright (c) Steve Scherf et al.
# Submitted via: dBpowerAMP V4.0
#
DISCID=9907fc0c
DTITLE=Various Musicians - Pickin' On George Strait
DYEAR=1900
DGENRE=Country
TTITLE0=All My Ex's Live In Texas
TTITLE1=Adalida
TTITLE2=Check Yes Or No
TTITLE3=Am I Blue
TTITLE4=Marina Del Rey
TTITLE5=The Chair
TTITLE6=Ace In The Hole
TTITLE7=Love Without End Amen
TTITLE8=I Just Want To Dance With You
TTITLE9=One Night At A Time
TTITLE10=Right Or Wrong
TTITLE11=The Fireman
EXTD=Pickin' On George Strait is an Instrumental album in\ntribute to some of Strait's best tunes by some of\nNashvilles hottest musicians.
EXTT0=
EXTT1=
EXTT2=
EXTT3=
EXTT4=
EXTT5=
EXTT6=
EXTT7=
EXTT8=
EXTT9=
EXTT10=
EXTT11=
PLAYORDER=
